<svg width="44" height="44" viewBox="0 0 44 44" fill="none" xmlns="http://www.w3.org/2000/svg">
<rect width="44" height="44" rx="10" fill="#627511"/>
<path d="M10 21C9.44772 21 9 21.4477 9 22C9 22.5523 9.44772 23 10 23V22V21ZM34.7071 22.7071C35.0976 22.3166 35.0976 21.6834 34.7071 21.2929L28.3431 14.9289C27.9526 14.5384 27.3195 14.5384 26.9289 14.9289C26.5384 15.3195 26.5384 15.9526 26.9289 16.3431L32.5858 22L26.9289 27.6569C26.5384 28.0474 26.5384 28.6805 26.9289 29.0711C27.3195 29.4616 27.9526 29.4616 28.3431 29.0711L34.7071 22.7071ZM10 22V23H34V22V21H10V22Z" fill="white"/>
</svg>
