<svg width="28" height="28" viewBox="0 0 28 28" fill="none" xmlns="http://www.w3.org/2000/svg">
<path d="M11.7675 20C11.3643 19.8948 11.0713 19.6169 11.0009 19.1977L10.9999 9.51757C10.9963 9.17593 11.4453 8.69199 11.7795 8.69199L12.63 8.69199L12.63 7.96128C12.63 7.88461 12.7759 7.7641 12.8456 7.73368L15.3372 7.73368C15.4069 7.7641 15.5528 7.88461 15.5528 7.96128L15.5528 8.69198L16.4033 8.69198C16.7375 8.69198 17.1867 9.17593 17.1829 9.51757L17.1822 19.1977C17.117 19.6157 16.8147 19.8958 16.4153 20L11.7675 20ZM11.6067 18.999C11.6235 19.1845 11.7285 19.3481 11.9227 19.3778L16.2603 19.3778C16.4948 19.3409 16.5806 19.1263 16.5842 18.9111L16.5842 9.75738C16.5696 9.57339 16.5176 9.41 16.3372 9.33333L11.923 9.31441C11.6884 9.3513 11.6027 9.56596 11.5991 9.7811L11.607 18.999L11.6067 18.999Z" fill="white"/>
<path d="M12.1572 18.3525L12.1498 10.4278C12.1543 10.1894 12.2756 10.0133 12.5221 9.98551C13.5264 10.0528 14.6471 9.89614 15.6375 9.98455C15.88 10.0061 16.0201 10.1623 16.0328 10.4038L16.0328 18.2638C16.0345 18.496 15.8968 18.6805 15.6608 18.7061C14.6565 18.6388 13.5357 18.7955 12.5453 18.7071C12.3338 18.6881 12.1886 18.5647 12.1572 18.3525Z" fill="white"/>
<circle cx="14" cy="14" r="13.5" stroke="white"/>
</svg>
