<svg width="28" height="28" viewBox="0 0 28 28" fill="none" xmlns="http://www.w3.org/2000/svg">
<g clip-path="url(#clip0_2_19)">
<path d="M15.155 8L15.923 8.15167C18.0228 8.7202 18.7248 10.7603 18.9157 12.8711C19.1624 15.6024 19.0524 19.895 16.0447 20.7933C15.7507 20.8813 15.4518 20.919 15.155 20.9883C14.7211 20.9606 14.2495 21.0256 13.8204 20.9883C10.8483 20.7296 10.1268 17.8934 10.0172 15.1669C9.8951 12.1362 10.3634 8.28253 13.8609 8H15.155ZM14.1444 20.0354L17.2131 16.7581L15.1983 14.4783L17.2188 12.2644L14.1444 8.95247L14.1249 13.2399L14.0218 13.2611L12.3847 11.5078L11.7959 12.1799L13.8985 14.51L11.7959 16.8084L12.3847 17.4805L14.0218 15.7272L14.1249 15.7484L14.1444 20.0358V20.0354Z" fill="white"/>
<path d="M14.993 15.7065L15.1132 15.7377C15.2143 15.9392 15.9592 16.5294 15.9632 16.6793C15.9649 16.7465 15.9163 16.8028 15.8828 16.8535C15.816 16.9536 15.2211 17.598 15.137 17.6565C15.0873 17.6912 15.0565 17.7098 14.9934 17.6977V15.7061L14.993 15.7065Z" fill="white"/>
<path d="M14.993 11.2902C15.0561 11.2785 15.0865 11.2967 15.1366 11.3313C15.2211 11.3898 15.816 12.0346 15.8824 12.1343C15.9163 12.185 15.9645 12.2413 15.9628 12.3085C15.96 12.4207 15.3449 12.9758 15.2135 13.1063C15.1273 13.1921 15.133 13.3173 14.993 13.2813V11.2897V11.2902Z" fill="white"/>
</g>
<circle cx="14" cy="14" r="13.5" stroke="white"/>
<defs>
<clipPath id="clip0_2_19">
<rect width="9" height="13" fill="white" transform="translate(10 8)"/>
</clipPath>
</defs>
</svg>
