<svg width="110" height="110" viewBox="0 0 110 110" fill="none" xmlns="http://www.w3.org/2000/svg">
<rect width="110" height="110" rx="30" fill="black"/>
<g clip-path="url(#clip0_1_250)">
<path d="M81.9999 30L71.5676 43.0569C62.9414 54.6635 55.0459 66.9147 48.6762 79.9976C47.0447 77.4692 45.7763 74.5806 44.1793 71.9621C41.346 67.3199 37.5867 62.5735 33.6343 58.9028C31.8374 57.2346 29.7693 55.8673 27.9977 54.1706H35.0062C35.645 54.1706 37.566 54.6161 38.2875 54.8152C42.426 55.9621 45.5074 59.9123 48.104 63.1706C52.9594 55.1682 58.2951 47.4479 64.4166 40.4242C66.5766 37.9431 71.9284 31.7109 74.718 30.6682L77.4042 30.0024H81.9999V30Z" fill="white"/>
</g>
<defs>
<clipPath id="clip0_1_250">
<rect width="54" height="50" fill="white" transform="translate(28 30)"/>
</clipPath>
</defs>
</svg>
