<svg width="110" height="110" viewBox="0 0 110 110" fill="none" xmlns="http://www.w3.org/2000/svg">
<rect width="110" height="110" rx="30" fill="black"/>
<g clip-path="url(#clip0_1_268)">
<path d="M53.5873 36.0254C68.5434 35.2682 78.1868 51.9384 70.0164 64.583C62.5635 76.1045 45.4546 75.7512 38.5431 63.889C31.5434 51.8501 39.7768 36.7195 53.5873 36.0254ZM55.6394 53.377V40.7576C55.6394 40.6315 55.4002 40.2529 55.2743 40.1519C54.5819 39.5714 53.4866 39.9374 53.3733 40.846L53.3985 54.8535C53.5621 55.2699 53.9146 55.6107 54.3679 55.6611H65.2198C66.1011 55.5349 66.4662 54.4244 65.8997 53.7682C65.8115 53.6546 65.4087 53.3896 65.308 53.3896H55.6268L55.6394 53.377Z" fill="white"/>
</g>
<defs>
<clipPath id="clip0_1_268">
<rect width="37" height="37" fill="white" transform="translate(36 36)"/>
</clipPath>
</defs>
</svg>
