<svg width="42" height="42" viewBox="0 0 42 42" fill="none" xmlns="http://www.w3.org/2000/svg">
<rect x="0.5" y="0.5" width="40.59" height="40.59" rx="20.295" stroke="white"/>
<path d="M28.5508 20.7891C28.5508 16.5078 25.082 13.0391 20.8008 13.0391C16.5195 13.0391 13.0508 16.5078 13.0508 20.7891C13.0508 24.6572 15.8848 27.8634 19.5898 28.4453V23.0294H17.6211V20.7891H19.5898V19.0816C19.5898 17.1394 20.7461 16.0666 22.517 16.0666C23.3652 16.0666 24.252 16.2178 24.252 16.2178V18.1241H23.2745C22.312 18.1241 22.0117 18.7216 22.0117 19.3344V20.7891H24.1611L23.8173 23.0294H22.0117V28.4453C25.7167 27.8634 28.5508 24.6572 28.5508 20.7891Z" fill="white"/>
</svg>
