<svg width="110" height="110" viewBox="0 0 110 110" fill="none" xmlns="http://www.w3.org/2000/svg">
<rect width="110" height="110" rx="30" fill="black"/>
<g clip-path="url(#clip0_1_262)">
<path d="M54.8269 41.2294C54.9257 41.3125 55.0721 41.2541 55.1903 41.1197C55.5025 40.7677 55.8536 40.0001 56.2399 39.5562C61.9062 33.0316 71.1483 33.465 75.4297 41.1763C80.7838 50.8226 71.2382 59.7525 64.9722 65.819C61.7439 68.946 58.2986 71.8732 55.065 74.9984C54.9486 75.0178 53.4615 73.7161 53.2339 73.5109C50.5207 71.0613 47.6576 68.3641 45.0291 65.819C38.823 59.8109 29.3657 50.9924 34.4446 41.4045C38.6166 33.5286 48.0404 32.929 53.7596 39.5562C54.0454 39.887 54.751 41.1657 54.8269 41.2294Z" fill="white"/>
</g>
<defs>
<clipPath id="clip0_1_262">
<rect width="44" height="40" fill="white" transform="translate(33 35)"/>
</clipPath>
</defs>
</svg>
