<svg width="110" height="110" viewBox="0 0 110 110" fill="none" xmlns="http://www.w3.org/2000/svg">
  <rect width="110" height="110" rx="30" fill="black"/>
  <path d="M55.2037 37C62.9167 36.3213 70.291 39.4173 75.1579 47.0711C83.4012 60.0316 76.9247 72.6438 81.7758 86.1207C83.6818 91.4124 85.941 93.5929 88.5189 97.8641C90.769 101.594 88.9408 107.39 85.1323 107.824H30.7514C26.8446 107.178 24.982 101.66 27.4363 97.7451C30.9423 92.1547 33.7738 89.1453 35.3941 81.7648C37.2676 73.2304 34.9233 64.0391 37.0967 55.4443C39.5538 45.7293 46.9884 38.1021 55.2037 37Z" fill="white"/>
  <path d="M67.8517 110C64.6478 120.933 51.2908 120.913 48.0825 110H67.8517Z" fill="white"/>
  <path d="M64.2708 34.3855C60.1217 33.2422 55.8015 33.2422 51.6551 34.3855V30.6696C51.6551 28.3628 55.5063 25.8403 58.0521 25.8653C60.7239 25.8924 64.2708 28.3824 64.2708 31.5392V34.3855Z" fill="white"/>
</svg>
