<svg width="24" height="24" viewBox="0 0 24 24" fill="none" xmlns="http://www.w3.org/2000/svg">
<path d="M18.5 18C17.6716 18 17 18.6716 17 19.5C17 20.3284 17.6716 21 18.5 21C19.3284 21 20 20.3284 20 19.5C20 18.6716 19.3284 18 18.5 18ZM18.5 18H9.31327C8.56147 18 7.92579 17.4435 7.82643 16.6982L6.17357 4.30175C6.07421 3.55655 5.43853 3 4.68673 3H3M6.5 6.5L19.17 5.18931C20.1148 5.09157 20.9115 5.88546 20.8169 6.8306L20.2251 12.7488C20.0973 14.0268 19.0219 15 17.7375 15H8M13 9.5L17.5 9M10 19.5C10 20.3284 9.32843 21 8.5 21C7.67157 21 7 20.3284 7 19.5C7 18.6716 7.67157 18 8.5 18C9.32843 18 10 18.6716 10 19.5Z" stroke="white" stroke-width="1.5" stroke-linecap="round"/>
</svg>
