<svg width="44" height="44" viewBox="0 0 44 44" fill="none" xmlns="http://www.w3.org/2000/svg">
<rect width="44" height="44" rx="10" fill="#627511"/>
<path d="M28.5 28C27.6716 28 27 28.6716 27 29.5C27 30.3284 27.6716 31 28.5 31C29.3284 31 30 30.3284 30 29.5C30 28.6716 29.3284 28 28.5 28ZM28.5 28H19.3133C18.5615 28 17.9258 27.4435 17.8264 26.6982L16.1736 14.3018C16.0742 13.5565 15.4385 13 14.6867 13H13M16.5 16.5L29.17 15.1893C30.1148 15.0916 30.9115 15.8855 30.8169 16.8306L30.2251 22.7488C30.0973 24.0268 29.0219 25 27.7375 25H18M23 19.5L27.5 19M20 29.5C20 30.3284 19.3284 31 18.5 31C17.6716 31 17 30.3284 17 29.5C17 28.6716 17.6716 28 18.5 28C19.3284 28 20 28.6716 20 29.5Z" stroke="white" stroke-width="1.5" stroke-linecap="round"/>
</svg>
