<svg width="42" height="42" viewBox="0 0 42 42" fill="none" xmlns="http://www.w3.org/2000/svg">
<rect x="0.5" y="0.5" width="40.59" height="40.59" rx="20.295" stroke="white"/>
<path d="M20.7906 17.1949C18.8031 17.1949 17.2 18.798 17.2 20.7855C17.2 22.773 18.8031 24.3762 20.7906 24.3762C22.7781 24.3762 24.3813 22.773 24.3813 20.7855C24.3813 18.798 22.7781 17.1949 20.7906 17.1949ZM20.7906 23.1199C19.5063 23.1199 18.4562 22.073 18.4562 20.7855C18.4562 19.498 19.5031 18.4512 20.7906 18.4512C22.0781 18.4512 23.125 19.498 23.125 20.7855C23.125 22.073 22.075 23.1199 20.7906 23.1199ZM25.3656 17.048C25.3656 17.5137 24.9906 17.8855 24.5281 17.8855C24.0625 17.8855 23.6906 17.5105 23.6906 17.048C23.6906 16.5855 24.0656 16.2105 24.5281 16.2105C24.9906 16.2105 25.3656 16.5855 25.3656 17.048ZM27.7438 17.898C27.6906 16.7762 27.4344 15.7824 26.6125 14.9637C25.7937 14.1449 24.8 13.8887 23.6781 13.8324C22.5219 13.7668 19.0563 13.7668 17.9 13.8324C16.7812 13.8855 15.7875 14.1418 14.9656 14.9605C14.1438 15.7793 13.8906 16.773 13.8344 17.8949C13.7688 19.0512 13.7688 22.5168 13.8344 23.673C13.8875 24.7949 14.1438 25.7887 14.9656 26.6074C15.7875 27.4262 16.7781 27.6824 17.9 27.7387C19.0563 27.8043 22.5219 27.8043 23.6781 27.7387C24.8 27.6855 25.7937 27.4293 26.6125 26.6074C27.4313 25.7887 27.6875 24.7949 27.7438 23.673C27.8094 22.5168 27.8094 19.0543 27.7438 17.898ZM26.25 24.9137C26.0063 25.5262 25.5344 25.998 24.9188 26.2449C23.9969 26.6105 21.8094 26.5262 20.7906 26.5262C19.7719 26.5262 17.5812 26.6074 16.6625 26.2449C16.05 26.0012 15.5781 25.5293 15.3313 24.9137C14.9656 23.9918 15.05 21.8043 15.05 20.7855C15.05 19.7668 14.9688 17.5762 15.3313 16.6574C15.575 16.0449 16.0469 15.573 16.6625 15.3262C17.5844 14.9605 19.7719 15.0449 20.7906 15.0449C21.8094 15.0449 24 14.9637 24.9188 15.3262C25.5313 15.5699 26.0031 16.0418 26.25 16.6574C26.6156 17.5793 26.5312 19.7668 26.5312 20.7855C26.5312 21.8043 26.6156 23.9949 26.25 24.9137Z" fill="white"/>
</svg>
