<svg width="42" height="42" viewBox="0 0 42 42" fill="none" xmlns="http://www.w3.org/2000/svg">
<rect x="0.5" y="0.5" width="40.59" height="40.59" rx="20.295" stroke="white"/>
<path d="M26.8008 13.7891H14.7977C14.2477 13.7891 13.8008 14.2422 13.8008 14.7984V26.7797C13.8008 27.3359 14.2477 27.7891 14.7977 27.7891H26.8008C27.3508 27.7891 27.8008 27.3359 27.8008 26.7797V14.7984C27.8008 14.2422 27.3508 13.7891 26.8008 13.7891ZM18.032 25.7891H15.957V19.1078H18.0352V25.7891H18.032ZM16.9945 18.1953C16.3289 18.1953 15.7914 17.6547 15.7914 16.9922C15.7914 16.3297 16.3289 15.7891 16.9945 15.7891C17.657 15.7891 18.1977 16.3297 18.1977 16.9922C18.1977 17.6578 17.6602 18.1953 16.9945 18.1953ZM25.8102 25.7891H23.7352V22.5391C23.7352 21.7641 23.7195 20.7672 22.657 20.7672C21.5758 20.7672 21.4102 21.6109 21.4102 22.4828V25.7891H19.3352V19.1078H21.3258V20.0203H21.3539C21.632 19.4953 22.3102 18.9422 23.3195 18.9422C25.4195 18.9422 25.8102 20.3266 25.8102 22.1266V25.7891Z" fill="white"/>
</svg>
