<svg width="28" height="28" viewBox="0 0 28 28" fill="none" xmlns="http://www.w3.org/2000/svg">
<path d="M18.2866 8.46899C15.1265 6.04393 10.7141 6.69506 8.41154 9.87862C7.65154 10.9297 7.10962 12.0254 7.0182 13.3826C6.58491 19.8292 13.984 23.4467 18.7826 19.0986C21.9567 16.2224 21.6632 11.0604 18.2866 8.46899ZM16.8154 8.91564C16.4186 8.87425 16.0505 8.7964 15.6455 8.81115C13.4077 8.8931 11.4134 10.4707 10.8305 12.6237C9.90202 16.0527 12.5887 19.3793 16.1386 19.1797C16.3034 19.1703 16.5059 19.1117 16.6727 19.0986C16.7178 19.0949 16.8256 19.0687 16.815 19.1388C13.9832 20.1558 10.8526 18.6483 9.84586 15.8413C9.35354 14.4681 9.44086 12.8638 10.0926 11.5583C11.3347 9.06972 14.3251 7.93136 16.938 8.89515C16.9466 8.97506 16.8584 8.92015 16.8154 8.91564ZM13.5356 12.3783C12.5198 14.6046 13.6946 17.0563 15.9955 17.7664L16.569 17.9098C14.5079 17.9242 12.8982 16.4498 12.6342 14.4271C12.6317 14.3616 12.6596 14.2571 12.5932 14.2223C12.5891 14.155 12.5915 14.0846 12.5932 14.0174C12.6313 12.4373 13.5212 11.0256 14.9843 10.4044C15.3552 10.2466 15.8164 10.1089 16.2218 10.1249C16.2714 10.1269 16.3739 10.0938 16.3645 10.1655C15.0999 10.3728 14.0607 11.2288 13.5364 12.3787L13.5356 12.3783ZM12.0599 13.6486C11.9016 16.4355 14.0341 18.5909 16.8146 18.4843C16.7896 18.5425 16.6076 18.5507 16.5428 18.5602C13.2847 19.0461 10.5776 16.1224 11.322 12.911C11.5466 11.9414 12.2517 10.8998 13.0474 10.3126C14.1066 9.5299 15.4307 9.22994 16.7334 9.46925C16.7662 9.6221 16.5358 9.50162 16.426 9.50654C14.1796 9.60079 12.1902 11.3591 12.0599 13.649V13.6486ZM8.59969 17.4968C7.18996 15.3233 7.24571 12.4016 8.73989 10.288C10.5645 7.7068 14.0484 6.84463 16.897 8.23992C16.9068 8.31614 16.8146 8.27024 16.7724 8.26246C16.6121 8.23172 16.4551 8.1637 16.2899 8.12969C13.5803 7.57157 10.9719 8.76034 9.68271 11.1899C7.41665 15.4602 10.7514 20.3234 15.5258 20.0017C15.9136 19.9755 16.2751 19.8522 16.6494 19.7727C16.69 19.7641 16.8142 19.7272 16.8154 19.7747C13.9082 21.2253 10.3501 20.196 8.59928 17.4972L8.59969 17.4968ZM17.3479 17.3366C14.8637 17.4869 13.0277 15.0918 13.9455 12.7471C14.8904 10.3335 18.2632 9.92246 19.7824 12.014C21.3176 14.1272 19.9583 17.1784 17.3479 17.3366Z" fill="white"/>
<circle cx="14" cy="14" r="13.5" stroke="white"/>
</svg>
