<svg width="28" height="28" viewBox="0 0 28 28" fill="none" xmlns="http://www.w3.org/2000/svg">
<path d="M13.8467 9.72575C15.1437 9.61159 16.3838 10.0155 17.202 11.0468C18.5879 12.7935 17.499 14.4929 18.3145 16.3095C18.6349 17.0231 19.0148 17.3171 19.4481 17.8932C19.8265 18.3961 19.5191 19.1768 18.8792 19.2353H9.74236C9.08604 19.1482 8.77335 18.4045 9.18569 17.8772C9.77481 17.1243 10.2505 16.7192 10.5228 15.725C10.8377 14.5754 10.4437 13.3383 10.8091 12.1811C11.2222 10.8734 12.4711 9.84678 13.8467 9.72575Z" fill="white"/>
<path d="M15.9717 19.6914C15.4334 21.1632 13.1891 21.1606 12.65 19.6914H15.9717Z" fill="white"/>
<path d="M15.3702 9.37414C14.6734 9.22028 13.9476 9.22028 13.2512 9.37414V8.87398C13.2512 8.42117 13.898 7.99508 14.3256 8.00004C14.7742 8.00539 15.3702 8.42422 15.3702 8.90262V9.37414Z" fill="white"/>
<circle cx="14" cy="14" r="13.5" stroke="white"/>
</svg>
