<svg width="42" height="42" viewBox="0 0 42 42" fill="none" xmlns="http://www.w3.org/2000/svg">
<rect x="0.5" y="0.5" width="40.59" height="40.59" rx="20.295" stroke="white"/>
<path d="M28.0682 17.126C27.8938 16.4691 27.3797 15.9517 26.727 15.7761C25.544 15.457 20.8 15.457 20.8 15.457C20.8 15.457 16.0561 15.457 14.8731 15.7761C14.2204 15.9517 13.7063 16.4691 13.5318 17.126C13.2148 18.3168 13.2148 20.8011 13.2148 20.8011C13.2148 20.8011 13.2148 23.2855 13.5318 24.4763C13.7063 25.1332 14.2204 25.6291 14.8731 25.8046C16.0561 26.1237 20.8 26.1237 20.8 26.1237C20.8 26.1237 25.5439 26.1237 26.727 25.8046C27.3797 25.6291 27.8938 25.1332 28.0682 24.4763C28.3852 23.2855 28.3852 20.8011 28.3852 20.8011C28.3852 20.8011 28.3852 18.3168 28.0682 17.126ZM19.2485 23.0568V18.5455L23.2135 20.8012L19.2485 23.0568Z" fill="white"/>
</svg>
